<?xml version="1.0" standalone="no"?><!DOCTYPE svg PUBLIC "-//W3C//DTD SVG 1.1//EN" "http://www.w3.org/Graphics/SVG/1.1/DTD/svg11.dtd"><svg width="200.1953125" height="200" viewBox="0 0 200.1953125 200" version="1.1" xmlns="http://www.w3.org/2000/svg" xmlns:xlink="http://www.w3.org/1999/xlink"><defs><style type="text/css"><![CDATA[
@font-face { font-family: ifont; src: url("//at.alicdn.com/t/font_1442373896_4754455.eot?#iefix") format("embedded-opentype"), url("//at.alicdn.com/t/font_1442373896_4754455.woff") format("woff"), url("//at.alicdn.com/t/font_1442373896_4754455.ttf") format("truetype"), url("//at.alicdn.com/t/font_1442373896_4754455.svg#ifont") format("svg"); }

]]></style></defs><g class="transform-group"><g transform="scale(0.1953125, 0.1953125)"><path d="M927.487 603.429q0 2.853-0.585 3.986-36.571 153.161-153.161 248.283t-273.152 95.159q-83.419 0-161.426-31.415t-139.154-89.71l-73.728 73.728q-10.862 10.862-25.71 10.862t-25.71-10.862-10.862-25.71v-256q0-14.848 10.862-25.71t25.71-10.862h256q14.848 0 25.71 10.862t10.862 25.71-10.862 25.71l-78.299 78.299q40.558 37.705 92.014 58.295t106.862 20.553q76.581 0 142.848-37.157t106.277-102.29q6.29-9.728 30.281-66.853 4.571-13.129 17.152-13.129h109.714q7.424 0 12.873 5.413t5.413 12.873zM941.787 146.286v256q0 14.848-10.862 25.71t-25.71 10.862h-256q-14.848 0-25.71-10.862t-10.862-25.71 10.862-25.71l78.848-78.848q-84.553-78.299-199.424-78.299-76.581 0-142.848 37.157t-106.277 102.29q-6.29 9.728-30.281 66.853-4.571 13.129-17.152 13.129h-113.701q-7.424 0-12.873-5.413t-5.413-12.873v-3.986q37.157-153.161 154.295-248.283t274.286-95.159q83.419 0 162.304 31.707t139.995 89.417l74.277-73.728q10.862-10.862 25.71-10.862t25.71 10.862 10.862 25.71z" fill="#272636"></path></g></g></svg>